<svg xmlns="http://www.w3.org/2000/svg" enable-background="new 0 0 28 28" viewBox="0 0 28 28" id="grafana">
  <circle cx="16.132" cy="15.11" r="9.868" fill="#FFAB66"></circle>
  <path d="M18.63,26c-0.018,0-0.036-0.001-0.054-0.003c-0.075-0.008-1.766-0.206-2.852-1.568h-0.578c-0.661-0.021-1.339-0.123-2.029-0.302l-0.389-0.117c-0.579,0.403-1.921,1.144-3.779,1.071c-0.186-0.007-0.352-0.117-0.432-0.284c-0.033-0.07-0.776-1.663-0.213-3.623c-0.104-0.114-0.204-0.226-0.297-0.346c-0.309-0.378-0.589-0.785-0.849-1.23c-0.684-0.11-2.474-0.562-4.038-2.385c-0.11-0.128-0.148-0.302-0.102-0.464c0.028-0.097,0.688-2.311,2.858-3.513c0.004-0.021,0.008-0.039,0.012-0.057c0.079-0.635,0.217-1.262,0.396-1.813l0.081-0.234c-0.412-0.613-1.284-2.211-1.117-4.545C5.262,6.414,5.362,6.26,5.517,6.18c0.091-0.048,2.235-1.145,4.716-0.271c0.158-0.104,0.326-0.207,0.514-0.313c0.281-0.153,0.533-0.28,0.806-0.407c0.062-0.031,0.143-0.063,0.224-0.095c0.051-0.019,0.102-0.038,0.148-0.061c0.117-0.06,0.25-0.105,0.374-0.146c0.015-0.004,0.076-0.024,0.113-0.035c0.167-0.499,0.724-1.775,2.26-2.772c0.147-0.095,0.331-0.106,0.487-0.032c0.067,0.032,1.57,0.765,2.226,2.457c0.227,0.039,0.414,0.076,0.589,0.124c0.125,0.021,0.293,0.071,0.461,0.123l0.207,0.062c0.247,0.089,0.437,0.159,0.605,0.225c0.47-0.279,1.267-0.6,2.373-0.528c0.159,0.011,0.304,0.097,0.39,0.232c0.031,0.05,0.725,1.167,0.503,2.524l0.017,0.018c0.145,0.155,0.286,0.308,0.418,0.469c0.537,0.635,0.914,1.321,1.15,1.782c0.302,0.652,0.505,1.202,0.629,1.699c0.134,0.539,0.196,1.029,0.234,1.395c0.003,0.028,0.004,0.055,0.002,0.082c0.009,0.134,0.014,0.259,0.018,0.379c0.005,0.129,0.01,0.251,0.019,0.368c0.002,0.423-0.289,0.723-0.66,0.723c-0.316-0.007-0.578-0.21-0.663-0.504l-0.053-0.184c-0.043-0.154-0.092-0.328-0.16-0.521c-0.06-0.18-0.114-0.348-0.189-0.517l0.398-0.342l-0.452,0.213c-0.004-0.008-0.04-0.091-0.044-0.1l0.001,0c-0.044-0.063-0.07-0.123-0.087-0.16c-0.002-0.004-0.015-0.032-0.026-0.057c-0.006-0.009-0.011-0.019-0.016-0.028c-0.006-0.01-0.017-0.034-0.026-0.055c-0.01-0.016-0.019-0.032-0.026-0.049c-0.336-0.67-0.75-1.252-1.245-1.763l0.288-0.431l-0.354,0.353c-0.025-0.025-0.05-0.052-0.073-0.079c-0.027-0.023-0.053-0.048-0.078-0.074c-0.063-0.048-0.114-0.095-0.162-0.143c-0.053-0.036-0.101-0.085-0.138-0.14c-0.009-0.009-0.019-0.02-0.027-0.029l-0.002,0.001c-0.485-0.418-0.964-0.733-1.508-1.002c-0.58-0.3-1.175-0.5-1.824-0.616c-0.324-0.058-0.669-0.097-1.013-0.116l-0.715,0.001c-0.07,0.02-0.174,0.02-0.25,0.02h-0.059c-0.08,0.02-0.143,0.02-0.184,0.02c-0.06,0.013-0.121,0.02-0.162,0.02c-0.037,0.012-0.094,0.021-0.161,0.021c-0.013,0.004-0.029,0.009-0.048,0.012l-0.133,0.034c-0.04,0.01-0.081,0.016-0.123,0.016C14.99,7.992,14.931,8,14.882,8c-0.009,0.003-0.021,0.007-0.034,0.01c-0.032,0.01-0.062,0.019-0.081,0.022c-0.061,0.024-0.152,0.049-0.23,0.067c-0.041,0.021-0.149,0.046-0.195,0.055c-0.04,0.021-0.095,0.032-0.139,0.041c-0.18,0.061-0.347,0.117-0.514,0.191l-0.331-0.402l0.221,0.448l-0.367-0.385l0.225,0.447c-0.133,0.057-0.201,0.091-0.271,0.125c-0.178,0.081-0.315,0.169-0.454,0.256c-0.14,0.088-0.253,0.186-0.287,0.221c-0.199,0.157-0.323,0.264-0.448,0.39c-0.491,0.495-0.934,1.146-1.279,1.88c-0.163,0.348-0.355,0.921-0.416,1.144l-0.032,0.118c-0.045,0.165-0.089,0.322-0.119,0.491l-0.02,0.108c-0.03,0.168-0.061,0.329-0.076,0.501c-0.04,0.237-0.059,0.431-0.059,0.607v0.632c0.016,0.386,0.079,0.778,0.182,1.122c0.095,0.317,0.229,0.73,0.431,1.115c0.175,0.336,0.392,0.673,0.663,1.032c0.506,0.624,1.127,1.141,1.847,1.536c0.347,0.183,0.724,0.335,1.114,0.448c0.4,0.116,0.794,0.19,1.203,0.228c0.121,0.021,0.203,0.018,0.279,0.018h0.323c0.176,0,0.35-0.017,0.503-0.05c0.395-0.061,0.753-0.199,1.085-0.339c0.672-0.318,1.255-0.803,1.695-1.406c0.224-0.301,0.472-0.795,0.512-0.929l0.084-0.265c0.038-0.115,0.075-0.225,0.088-0.282l0.062-0.308c0.007-0.035,0.01-0.069,0.014-0.104c0.006-0.067,0.014-0.135,0.027-0.202c-0.011,0.029-0.004-0.033,0.002-0.102c0.004-0.035,0.008-0.07,0.008-0.105v-0.531c-0.004,0.025-0.01-0.023-0.018-0.087l-0.014-0.099c-0.054-0.345-0.154-0.661-0.302-0.96c-0.27-0.557-0.733-1.042-1.309-1.372c-0.41-0.23-0.862-0.37-1.342-0.412c-0.014,0.001-0.027,0.001-0.041,0.001h-0.162c-0.122,0.014-0.183,0.02-0.243,0.02c-0.102,0-0.235,0.034-0.363,0.066c-0.137,0.034-0.271,0.085-0.39,0.137c-0.106,0.046-0.218,0.111-0.333,0.193c-0.133,0.08-0.22,0.148-0.322,0.252c-0.389,0.375-0.64,0.853-0.733,1.386l-0.53,0.084l0.497,0.057v0.223c-0.016,0.143,0,0.247,0.016,0.357c0.033,0.223,0.101,0.425,0.2,0.596c0.119,0.204,0.25,0.367,0.41,0.512c0.144,0.145,0.311,0.257,0.5,0.345c0.149,0.069,0.336,0.123,0.57,0.167c0.017,0.003,0.033,0.007,0.049,0.012h0.367c0.034-0.01,0.082-0.018,0.14-0.02c-0.031-0.001-0.001-0.011,0.029-0.02c0.065-0.02,0.131-0.039,0.197-0.052c0.027-0.008,0.084-0.029,0.132-0.055l0.004,0.006c0.025-0.019,0.053-0.036,0.081-0.05c0.012-0.006,0.024-0.011,0.036-0.016c0.281-0.115,0.628-0.048,0.847,0.17c0.141,0.17,0.197,0.333,0.197,0.497c0,0.226-0.107,0.443-0.287,0.581c-0.182,0.138-0.31,0.217-0.463,0.294c-0.114,0.044-0.164,0.065-0.214,0.086c-0.071,0.03-0.144,0.059-0.215,0.083l-0.127,0.039c-0.027,0.008-0.076,0.021-0.125,0.032l0,0c-0.024,0.008-0.069,0.023-0.129,0.031c-0.044,0.012-0.107,0.026-0.184,0.026h-0.425c-0.305,0.023-0.679-0.025-1.062-0.146c-0.379-0.12-0.726-0.287-1.06-0.51c-0.359-0.242-0.663-0.531-0.929-0.887c-0.421-0.566-0.685-1.236-0.764-1.941c-0.028-0.109-0.028-0.194-0.028-0.26v-0.49c0.023-0.499,0.135-1.023,0.315-1.502c0.198-0.528,0.47-0.988,0.817-1.394c0.379-0.452,0.811-0.825,1.279-1.104c0.524-0.312,1.084-0.526,1.663-0.633l0.426-0.065l0.476-0.005c0.274,0,0.586,0,0.889,0.047c0.61,0.069,1.212,0.239,1.738,0.493c0.594,0.266,1.115,0.605,1.575,1.017c0.479,0.432,0.893,0.931,1.239,1.488c0.351,0.585,0.597,1.195,0.757,1.871c0.019,0.126,0.031,0.19,0.044,0.255c0.018,0.088,0.035,0.177,0.046,0.271l0.029,0.172c0.036,0.109,0.036,0.204,0.036,0.255v0.592c0,0.183-0.001,0.342-0.023,0.523c0.339,0.314,1.021,1.087,1.231,2.44c0.024,0.159-0.028,0.32-0.144,0.433c-0.042,0.042-1.001,0.97-2.411,1.004c-0.398,0.591-0.821,1.084-1.274,1.483c-0.191,0.161-0.378,0.306-0.562,0.447c-0.025,0.504-0.218,1.748-1.407,3.028C18.901,25.943,18.769,26,18.63,26z M15.977,23.429c0.165,0,0.319,0.081,0.412,0.217c0.613,0.893,1.599,1.21,2.053,1.312c0.916-1.093,0.965-2.079,0.965-2.275v-0.123c0-0.157,0.073-0.304,0.198-0.398c0.258-0.196,0.484-0.366,0.71-0.556c0.383-0.337,0.756-0.775,1.164-1.369c0.058-0.084,0.095-0.146,0.154-0.207c0.101-0.105,0.229-0.156,0.39-0.152c0.788,0.04,1.425-0.33,1.731-0.555c-0.251-1.093-0.874-1.592-0.949-1.649c-0.02-0.015-0.097-0.091-0.114-0.109c-0.092-0.093-0.144-0.219-0.144-0.351c0-0.057,0.005-0.114,0.012-0.173c0-0.021,0.009-0.133,0.012-0.154c0.018-0.141,0.017-0.265,0.017-0.407v-0.573c-0.006-0.02-0.011-0.039-0.014-0.059l-0.041-0.245c-0.012-0.091-0.024-0.155-0.037-0.219c-0.018-0.089-0.035-0.178-0.046-0.274c-0.127-0.519-0.336-1.036-0.628-1.525c-0.297-0.478-0.642-0.892-1.049-1.26c-0.388-0.347-0.824-0.63-1.3-0.845C19,11.255,18.51,11.117,18.01,11.06c-0.282-0.042-0.533-0.04-0.776-0.04h-0.405l-0.324,0.055c-0.452,0.084-0.9,0.255-1.323,0.507c-0.373,0.222-0.719,0.521-1.027,0.891c-0.275,0.322-0.488,0.681-0.636,1.073c-0.154,0.412-0.243,0.829-0.262,1.202l0.001,0.466c0.012,0.035,0.015,0.075,0.018,0.112c0.056,0.551,0.25,1.052,0.576,1.491c0.012,0.015,0.022,0.03,0.034,0.045c-0.015-0.023-0.028-0.046-0.042-0.07c-0.163-0.282-0.272-0.602-0.325-0.953c-0.023-0.163-0.052-0.36-0.021-0.574l-0.005-0.154c0-0.132,0.026-0.232,0.047-0.312c0.131-0.742,0.482-1.408,1.017-1.925c0.161-0.161,0.317-0.284,0.486-0.381c0.13-0.096,0.304-0.196,0.475-0.27c0.164-0.071,0.354-0.142,0.543-0.189c0.178-0.045,0.381-0.097,0.607-0.097c0.12-0.014,0.182-0.02,0.243-0.02h0.162c0.001,0,0.005,0,0.009,0c0.04,0.003,0.104,0.001,0.115,0.002c0.624,0.054,1.213,0.235,1.752,0.538c0.752,0.43,1.36,1.07,1.714,1.804c0.19,0.387,0.321,0.799,0.388,1.222c0.01,0.044,0.017,0.104,0.023,0.165l0.014,0.099l0.01,0.63c0,0.066-0.006,0.134-0.012,0.201c-0.004,0.035-0.008,0.07-0.008,0.105c-0.017,0.133-0.02,0.168-0.023,0.203c-0.006,0.067-0.014,0.135-0.027,0.202l-0.062,0.305c-0.014,0.07-0.062,0.229-0.117,0.397L20.77,18.03c-0.078,0.263-0.386,0.862-0.666,1.236c-0.534,0.732-1.248,1.326-2.06,1.712c-0.442,0.187-0.87,0.35-1.345,0.422c-0.191,0.042-0.438,0.067-0.683,0.067h-0.296c-0.159,0-0.315-0.003-0.448-0.029c-0.423-0.037-0.877-0.122-1.339-0.255c-0.456-0.132-0.897-0.31-1.311-0.528c-0.842-0.461-1.562-1.062-2.15-1.788c-0.325-0.429-0.571-0.812-0.772-1.198c-0.241-0.46-0.395-0.933-0.502-1.292c-0.126-0.421-0.203-0.898-0.224-1.377v-0.663c0-0.231,0.022-0.486,0.068-0.741c0.013-0.161,0.047-0.349,0.083-0.547l0.019-0.105c0.035-0.2,0.086-0.384,0.139-0.579l0.032-0.116C9.383,12,9.592,11.366,9.792,10.941c0.398-0.849,0.895-1.575,1.475-2.159c0.158-0.16,0.317-0.298,0.5-0.436c0.031-0.039,0.203-0.186,0.399-0.31c0.19-0.119,0.369-0.229,0.566-0.318c0.07-0.037,0.164-0.083,0.281-0.13c0.03-0.017,0.088-0.045,0.172-0.073c0.005-0.008,0.062-0.035,0.142-0.061c0.151-0.07,0.348-0.138,0.546-0.204C13.892,7.245,13.98,7.22,14,7.215c0.041-0.021,0.101-0.033,0.146-0.042c0.012-0.012,0.082-0.029,0.157-0.047c0.034-0.008,0.075-0.016,0.109-0.029c0.027-0.011,0.126-0.04,0.155-0.045c0.071-0.036,0.093-0.031,0.172-0.031C14.771,7.008,14.833,7,14.882,7c0.013-0.004,0.028-0.008,0.046-0.012l0.134-0.034c0.04-0.01,0.081-0.016,0.123-0.016c0.034-0.012,0.095-0.02,0.143-0.02c0.037-0.012,0.094-0.021,0.161-0.021c0.041-0.009,0.081-0.015,0.115-0.018c0.048-0.015,0.098-0.022,0.147-0.022h0.142c0.05-0.016,0.11-0.02,0.162-0.02h0.83c0.42,0.022,0.801,0.066,1.161,0.13c0.75,0.134,1.437,0.365,2.1,0.708c0.613,0.303,1.16,0.665,1.665,1.101c0.026,0.021,0.073,0.058,0.12,0.115c0.02,0.015,0.049,0.041,0.08,0.078c0.023,0.021,0.047,0.043,0.069,0.066c0.063,0.048,0.113,0.094,0.161,0.143c0.054,0.037,0.105,0.092,0.142,0.146c0.044,0.041,0.097,0.093,0.145,0.167c0.367,0.369,0.716,0.82,1.021,1.318c-0.095-0.258-0.211-0.536-0.35-0.836c-0.205-0.398-0.545-1.017-1.021-1.581c-0.124-0.152-0.251-0.287-0.38-0.426l-0.196-0.213c-0.112-0.124-0.155-0.296-0.114-0.458c0.188-0.749-0.052-1.45-0.209-1.795c-0.857,0.006-1.417,0.312-1.687,0.507c-0.15,0.107-0.346,0.125-0.513,0.044L18.936,5.99c-0.152-0.061-0.355-0.135-0.56-0.21l-0.235-0.071c-0.131-0.04-0.261-0.081-0.392-0.105c-0.234-0.063-0.444-0.098-0.654-0.134c-0.045-0.001-0.11-0.017-0.145-0.025c-0.22,0-0.354-0.139-0.419-0.349c-0.338-1.101-1.156-1.743-1.563-2.005c-1.341,0.978-1.631,2.144-1.644,2.195h-0.001c-0.015,0.073-0.039,0.153-0.062,0.197c-0.07,0.136-0.198,0.232-0.348,0.262c-0.146,0.046-0.211,0.067-0.283,0.082c-0.101,0.037-0.185,0.062-0.258,0.099c-0.075,0.038-0.156,0.07-0.237,0.102c-0.051,0.019-0.102,0.038-0.148,0.061c-0.267,0.125-0.501,0.243-0.756,0.381c-0.234,0.133-0.438,0.263-0.634,0.4c-0.011,0.008-0.021,0.017-0.033,0.024c-0.004,0.002-0.009,0.005-0.013,0.008h-0.001l0,0c-0.188,0.117-0.434,0.101-0.6-0.033c-1.634-0.594-3.14-0.141-3.72,0.087c-0.067,2.189,0.886,3.53,1.086,3.786c0.106,0.137,0.135,0.319,0.074,0.481l-0.073,0.212c-0.027,0.084-0.056,0.169-0.09,0.26c-0.152,0.472-0.276,1.037-0.351,1.612c-0.003,0.018-0.012,0.087-0.016,0.104c-0.017,0.138-0.026,0.211-0.044,0.276c-0.037,0.14-0.132,0.257-0.262,0.321c-1.542,0.763-2.252,2.19-2.485,2.767c1.605,1.718,3.41,1.856,3.429,1.857c0.17,0.011,0.325,0.108,0.407,0.257c0.266,0.481,0.555,0.912,0.884,1.316c0.096,0.124,0.193,0.229,0.292,0.337l0.159,0.176c0.12,0.136,0.157,0.325,0.098,0.496c-0.438,1.259-0.189,2.37-0.026,2.87c1.632-0.03,2.706-0.777,3.01-1.018c0.129-0.102,0.301-0.135,0.455-0.086l0.608,0.184c0.601,0.155,1.204,0.246,1.776,0.265L15.977,23.429z M22.619,15.989C22.619,15.989,22.619,15.989,22.619,15.989L22.619,15.989z M23.864,11.995l-0.194,0.117l0.206-0.048C23.872,12.041,23.868,12.018,23.864,11.995z M23.128,12.092c0.001,0,0.001,0.001,0.002,0.001C23.129,12.093,23.129,12.092,23.128,12.092z M23.044,11.966c0.001,0.003,0.003,0.008,0.006,0.014C23.047,11.973,23.045,11.968,23.044,11.966z M15.528,6.911C15.527,6.911,15.527,6.911,15.528,6.911C15.527,6.911,15.527,6.911,15.528,6.911z"></path>
  <path d="M13.452,17.618c-0.148,0-0.296-0.066-0.395-0.193l-0.007-0.009c-0.021-0.026-0.038-0.055-0.053-0.083c-0.115-0.23-0.037-0.51,0.181-0.646c0.215-0.136,0.499-0.089,0.658,0.112c0.003,0.004,0.006,0.008,0.01,0.012c0.008,0.01,0.015,0.02,0.021,0.03c0.149,0.224,0.095,0.526-0.124,0.683C13.656,17.587,13.554,17.618,13.452,17.618z"></path>
</svg>
