<svg xmlns="http://www.w3.org/2000/svg" xmlns:xlink="http://www.w3.org/1999/xlink" width="2400" zoomAndPan="magnify" viewBox="0 0 1800 1799.999925" height="2400" preserveAspectRatio="xMidYMid meet" version="1.0"><path fill="#757185" d="M 1676.324219 601.425781 L 1198.574219 123.675781 C 1193.6875 118.789062 1188.683594 114.023438 1183.566406 109.382812 C 1178.445312 104.742188 1173.214844 100.230469 1167.871094 95.847656 C 1162.53125 91.464844 1157.082031 87.214844 1151.535156 83.097656 C 1145.984375 78.980469 1140.335938 75.003906 1134.589844 71.164062 C 1128.84375 67.324219 1123.007812 63.628906 1117.078125 60.074219 C 1111.152344 56.523438 1105.140625 53.117188 1099.046875 49.859375 C 1092.953125 46.601562 1086.78125 43.496094 1080.535156 40.542969 C 1074.289062 37.585938 1067.972656 34.789062 1061.585938 32.144531 C 1055.203125 29.5 1048.757812 27.011719 1042.25 24.683594 C 1035.746094 22.355469 1029.183594 20.191406 1022.574219 18.183594 C 1015.960938 16.175781 1009.300781 14.335938 1002.597656 12.65625 C 995.894531 10.976562 989.152344 9.464844 982.375 8.113281 C 975.597656 6.765625 968.792969 5.585938 961.957031 4.570312 C 955.121094 3.558594 948.265625 2.710938 941.386719 2.035156 C 934.511719 1.359375 927.621094 0.847656 920.71875 0.511719 C 913.816406 0.171875 906.910156 0 900 0 C 893.089844 0 886.183594 0.171875 879.28125 0.511719 C 872.378906 0.847656 865.488281 1.359375 858.613281 2.035156 C 851.734375 2.710938 844.878906 3.558594 838.042969 4.570312 C 831.207031 5.585938 824.402344 6.765625 817.625 8.113281 C 810.84375 9.464844 804.105469 10.976562 797.402344 12.65625 C 790.699219 14.335938 784.039062 16.175781 777.429688 18.183594 C 770.816406 20.191406 764.253906 22.355469 757.75 24.683594 C 751.242188 27.011719 744.796875 29.5 738.414062 32.144531 C 732.027344 34.789062 725.710938 37.585938 719.464844 40.542969 C 713.21875 43.496094 707.046875 46.601562 700.953125 49.859375 C 694.859375 53.117188 688.847656 56.523438 682.921875 60.074219 C 676.992188 63.628906 671.15625 67.324219 665.410156 71.164062 C 659.664062 75.003906 654.015625 78.980469 648.464844 83.097656 C 642.917969 87.214844 637.46875 91.464844 632.128906 95.847656 C 626.785156 100.230469 621.554688 104.742188 616.433594 109.382812 C 611.316406 114.023438 606.3125 118.789062 601.425781 123.675781 L 123.675781 601.425781 C 118.789062 606.3125 114.023438 611.316406 109.382812 616.433594 C 104.742188 621.554688 100.230469 626.785156 95.847656 632.128906 C 91.464844 637.46875 87.214844 642.917969 83.097656 648.464844 C 78.980469 654.015625 75.003906 659.664062 71.164062 665.410156 C 67.324219 671.15625 63.628906 676.992188 60.074219 682.921875 C 56.523438 688.847656 53.117188 694.859375 49.859375 700.953125 C 46.601562 707.046875 43.496094 713.21875 40.542969 719.464844 C 37.585938 725.710938 34.789062 732.027344 32.144531 738.414062 C 29.5 744.796875 27.011719 751.242188 24.683594 757.75 C 22.355469 764.253906 20.191406 770.816406 18.183594 777.425781 C 16.175781 784.039062 14.335938 790.699219 12.65625 797.402344 C 10.976562 804.105469 9.464844 810.84375 8.113281 817.625 C 6.765625 824.402344 5.585938 831.207031 4.570312 838.042969 C 3.558594 844.878906 2.710938 851.734375 2.035156 858.613281 C 1.359375 865.488281 0.847656 872.378906 0.511719 879.28125 C 0.171875 886.183594 0 893.089844 0 900 C 0 906.910156 0.171875 913.816406 0.511719 920.71875 C 0.847656 927.621094 1.359375 934.511719 2.035156 941.386719 C 2.710938 948.265625 3.558594 955.121094 4.570312 961.957031 C 5.585938 968.792969 6.765625 975.597656 8.113281 982.375 C 9.464844 989.152344 10.976562 995.894531 12.65625 1002.597656 C 14.335938 1009.300781 16.175781 1015.960938 18.183594 1022.570312 C 20.191406 1029.183594 22.355469 1035.746094 24.683594 1042.25 C 27.011719 1048.757812 29.5 1055.203125 32.144531 1061.585938 C 34.789062 1067.972656 37.585938 1074.289062 40.542969 1080.535156 C 43.496094 1086.78125 46.601562 1092.953125 49.859375 1099.046875 C 53.117188 1105.140625 56.523438 1111.152344 60.074219 1117.078125 C 63.628906 1123.007812 67.324219 1128.84375 71.164062 1134.589844 C 75.003906 1140.335938 78.980469 1145.984375 83.097656 1151.53125 C 87.214844 1157.082031 91.464844 1162.53125 95.847656 1167.871094 C 100.230469 1173.214844 104.742188 1178.445312 109.382812 1183.566406 C 114.023438 1188.683594 118.789062 1193.6875 123.675781 1198.574219 L 601.425781 1676.324219 C 606.3125 1681.210938 611.316406 1685.976562 616.433594 1690.617188 C 621.554688 1695.257812 626.785156 1699.769531 632.128906 1704.152344 C 637.46875 1708.535156 642.917969 1712.785156 648.464844 1716.902344 C 654.015625 1721.019531 659.664062 1724.996094 665.410156 1728.835938 C 671.15625 1732.675781 676.992188 1736.371094 682.921875 1739.925781 C 688.847656 1743.476562 694.859375 1746.882812 700.953125 1750.140625 C 707.046875 1753.398438 713.21875 1756.503906 719.464844 1759.457031 C 725.710938 1762.414062 732.027344 1765.210938 738.414062 1767.855469 C 744.796875 1770.5 751.242188 1772.988281 757.75 1775.316406 C 764.253906 1777.644531 770.816406 1779.808594 777.429688 1781.816406 C 784.039062 1783.824219 790.699219 1785.664062 797.402344 1787.34375 C 804.105469 1789.023438 810.84375 1790.535156 817.625 1791.882812 C 824.402344 1793.234375 831.207031 1794.414062 838.042969 1795.429688 C 844.878906 1796.441406 851.734375 1797.289062 858.613281 1797.964844 C 865.488281 1798.640625 872.378906 1799.148438 879.28125 1799.488281 C 886.183594 1799.828125 893.089844 1799.996094 900 1799.996094 C 906.910156 1799.996094 913.816406 1799.828125 920.71875 1799.488281 C 927.621094 1799.148438 934.511719 1798.640625 941.386719 1797.964844 C 948.265625 1797.289062 955.121094 1796.441406 961.957031 1795.429688 C 968.792969 1794.414062 975.597656 1793.234375 982.375 1791.882812 C 989.152344 1790.535156 995.894531 1789.023438 1002.597656 1787.34375 C 1009.300781 1785.664062 1015.960938 1783.820312 1022.570312 1781.816406 C 1029.183594 1779.808594 1035.746094 1777.644531 1042.25 1775.316406 C 1048.757812 1772.988281 1055.203125 1770.5 1061.585938 1767.855469 C 1067.972656 1765.210938 1074.289062 1762.414062 1080.535156 1759.457031 C 1086.78125 1756.503906 1092.953125 1753.398438 1099.046875 1750.140625 C 1105.140625 1746.882812 1111.152344 1743.476562 1117.078125 1739.925781 C 1123.007812 1736.371094 1128.84375 1732.675781 1134.589844 1728.835938 C 1140.335938 1724.996094 1145.984375 1721.019531 1151.535156 1716.902344 C 1157.082031 1712.785156 1162.53125 1708.535156 1167.871094 1704.152344 C 1173.214844 1699.769531 1178.445312 1695.257812 1183.566406 1690.617188 C 1188.683594 1685.976562 1193.6875 1681.210938 1198.574219 1676.324219 L 1676.324219 1198.574219 C 1681.210938 1193.6875 1685.976562 1188.683594 1690.617188 1183.566406 C 1695.257812 1178.445312 1699.769531 1173.214844 1704.152344 1167.871094 C 1708.535156 1162.53125 1712.785156 1157.082031 1716.902344 1151.53125 C 1721.019531 1145.984375 1724.996094 1140.335938 1728.835938 1134.589844 C 1732.675781 1128.84375 1736.371094 1123.007812 1739.925781 1117.078125 C 1743.476562 1111.152344 1746.882812 1105.140625 1750.140625 1099.046875 C 1753.398438 1092.953125 1756.503906 1086.78125 1759.457031 1080.535156 C 1762.414062 1074.289062 1765.210938 1067.972656 1767.855469 1061.585938 C 1770.5 1055.203125 1772.988281 1048.757812 1775.316406 1042.25 C 1777.644531 1035.746094 1779.808594 1029.183594 1781.816406 1022.574219 C 1783.824219 1015.960938 1785.664062 1009.300781 1787.34375 1002.597656 C 1789.023438 995.894531 1790.535156 989.152344 1791.882812 982.375 C 1793.234375 975.597656 1794.414062 968.792969 1795.429688 961.957031 C 1796.441406 955.121094 1797.289062 948.265625 1797.964844 941.386719 C 1798.640625 934.511719 1799.152344 927.621094 1799.488281 920.71875 C 1799.828125 913.816406 1799.996094 906.910156 1799.996094 900 C 1799.996094 893.089844 1799.828125 886.183594 1799.488281 879.28125 C 1799.148438 872.378906 1798.640625 865.488281 1797.964844 858.613281 C 1797.289062 851.734375 1796.441406 844.878906 1795.429688 838.042969 C 1794.414062 831.207031 1793.234375 824.402344 1791.882812 817.625 C 1790.535156 810.84375 1789.023438 804.105469 1787.34375 797.402344 C 1785.664062 790.699219 1783.820312 784.039062 1781.816406 777.425781 C 1779.808594 770.816406 1777.644531 764.253906 1775.316406 757.75 C 1772.988281 751.242188 1770.5 744.796875 1767.855469 738.414062 C 1765.210938 732.027344 1762.414062 725.710938 1759.457031 719.464844 C 1756.503906 713.21875 1753.398438 707.046875 1750.140625 700.953125 C 1746.882812 694.859375 1743.476562 688.847656 1739.925781 682.921875 C 1736.371094 676.992188 1732.675781 671.15625 1728.835938 665.410156 C 1724.996094 659.664062 1721.019531 654.015625 1716.902344 648.464844 C 1712.785156 642.917969 1708.535156 637.46875 1704.152344 632.128906 C 1699.769531 626.785156 1695.257812 621.554688 1690.617188 616.433594 C 1685.976562 611.316406 1681.210938 606.3125 1676.324219 601.425781 Z M 900 1196.476562 C 895.148438 1196.476562 890.296875 1196.355469 885.453125 1196.117188 C 880.605469 1195.878906 875.769531 1195.523438 870.941406 1195.046875 C 866.113281 1194.570312 861.296875 1193.976562 856.496094 1193.265625 C 851.699219 1192.554688 846.917969 1191.726562 842.160156 1190.777344 C 837.402344 1189.832031 832.667969 1188.769531 827.960938 1187.589844 C 823.253906 1186.410156 818.582031 1185.117188 813.9375 1183.707031 C 809.292969 1182.300781 804.6875 1180.777344 800.121094 1179.144531 C 795.550781 1177.507812 791.027344 1175.765625 786.542969 1173.90625 C 782.0625 1172.050781 777.625 1170.085938 773.242188 1168.011719 C 768.855469 1165.9375 764.523438 1163.753906 760.242188 1161.46875 C 755.964844 1159.179688 751.742188 1156.789062 747.582031 1154.292969 C 743.417969 1151.800781 739.320312 1149.207031 735.289062 1146.511719 C 731.253906 1143.8125 727.289062 1141.019531 723.390625 1138.128906 C 719.492188 1135.242188 715.667969 1132.257812 711.917969 1129.179688 C 708.167969 1126.101562 704.496094 1122.933594 700.898438 1119.671875 C 697.304688 1116.414062 693.792969 1113.070312 690.359375 1109.640625 C 686.929688 1106.207031 683.585938 1102.695312 680.328125 1099.101562 C 677.066406 1095.503906 673.898438 1091.832031 670.820312 1088.082031 C 667.742188 1084.332031 664.757812 1080.507812 661.867188 1076.609375 C 658.980469 1072.710938 656.183594 1068.746094 653.488281 1064.710938 C 650.792969 1060.679688 648.199219 1056.582031 645.703125 1052.417969 C 643.210938 1048.257812 640.820312 1044.035156 638.53125 1039.757812 C 636.246094 1035.476562 634.0625 1031.144531 631.988281 1026.757812 C 629.914062 1022.371094 627.949219 1017.9375 626.09375 1013.457031 C 624.234375 1008.972656 622.492188 1004.449219 620.855469 999.878906 C 619.222656 995.3125 617.699219 990.707031 616.292969 986.0625 C 614.882812 981.417969 613.589844 976.746094 612.410156 972.039062 C 611.230469 967.332031 610.167969 962.597656 609.222656 957.839844 C 608.273438 953.082031 607.445312 948.300781 606.734375 943.5 C 606.023438 938.703125 605.429688 933.886719 604.953125 929.058594 C 604.476562 924.230469 604.121094 919.394531 603.882812 914.546875 C 603.644531 909.699219 603.523438 904.851562 603.523438 900 C 603.523438 895.148438 603.644531 890.300781 603.882812 885.453125 C 604.121094 880.605469 604.476562 875.769531 604.953125 870.941406 C 605.429688 866.113281 606.023438 861.296875 606.734375 856.5 C 607.445312 851.699219 608.273438 846.917969 609.222656 842.160156 C 610.167969 837.402344 611.230469 832.667969 612.410156 827.960938 C 613.589844 823.253906 614.882812 818.582031 616.292969 813.9375 C 617.699219 809.292969 619.222656 804.6875 620.855469 800.121094 C 622.492188 795.550781 624.234375 791.027344 626.09375 786.542969 C 627.949219 782.0625 629.914062 777.625 631.988281 773.242188 C 634.0625 768.855469 636.246094 764.523438 638.53125 760.242188 C 640.820312 755.964844 643.210938 751.742188 645.703125 747.582031 C 648.199219 743.417969 650.792969 739.320312 653.488281 735.289062 C 656.183594 731.253906 658.980469 727.289062 661.867188 723.390625 C 664.757812 719.492188 667.742188 715.667969 670.820312 711.917969 C 673.898438 708.167969 677.066406 704.496094 680.328125 700.898438 C 683.585938 697.304688 686.929688 693.792969 690.359375 690.359375 C 693.792969 686.929688 697.304688 683.585938 700.898438 680.328125 C 704.496094 677.066406 708.167969 673.898438 711.917969 670.820312 C 715.667969 667.742188 719.492188 664.757812 723.390625 661.867188 C 727.289062 658.976562 731.253906 656.183594 735.289062 653.488281 C 739.320312 650.792969 743.417969 648.199219 747.582031 645.703125 C 751.742188 643.210938 755.964844 640.820312 760.242188 638.53125 C 764.523438 636.246094 768.855469 634.0625 773.242188 631.988281 C 777.625 629.914062 782.0625 627.949219 786.542969 626.09375 C 791.027344 624.234375 795.550781 622.492188 800.121094 620.855469 C 804.6875 619.222656 809.292969 617.699219 813.9375 616.292969 C 818.582031 614.882812 823.253906 613.589844 827.960938 612.410156 C 832.667969 611.230469 837.402344 610.167969 842.160156 609.222656 C 846.917969 608.273438 851.699219 607.445312 856.496094 606.734375 C 861.296875 606.023438 866.113281 605.429688 870.941406 604.953125 C 875.769531 604.476562 880.605469 604.121094 885.453125 603.882812 C 890.296875 603.644531 895.148438 603.523438 900 603.523438 C 904.851562 603.523438 909.699219 603.644531 914.546875 603.882812 C 919.394531 604.121094 924.230469 604.476562 929.058594 604.953125 C 933.886719 605.429688 938.703125 606.023438 943.5 606.734375 C 948.300781 607.445312 953.082031 608.273438 957.839844 609.222656 C 962.597656 610.167969 967.332031 611.230469 972.039062 612.410156 C 976.746094 613.589844 981.417969 614.882812 986.0625 616.292969 C 990.707031 617.699219 995.3125 619.222656 999.878906 620.855469 C 1004.449219 622.492188 1008.972656 624.234375 1013.457031 626.09375 C 1017.9375 627.949219 1022.375 629.914062 1026.757812 631.988281 C 1031.144531 634.0625 1035.476562 636.246094 1039.757812 638.53125 C 1044.035156 640.820312 1048.257812 643.210938 1052.417969 645.703125 C 1056.582031 648.199219 1060.679688 650.792969 1064.710938 653.488281 C 1068.746094 656.183594 1072.710938 658.976562 1076.609375 661.867188 C 1080.507812 664.757812 1084.332031 667.742188 1088.082031 670.820312 C 1091.832031 673.898438 1095.503906 677.066406 1099.101562 680.328125 C 1102.695312 683.585938 1106.207031 686.929688 1109.640625 690.359375 C 1113.070312 693.792969 1116.414062 697.304688 1119.671875 700.898438 C 1122.933594 704.496094 1126.101562 708.167969 1129.179688 711.917969 C 1132.257812 715.667969 1135.242188 719.492188 1138.132812 723.390625 C 1141.019531 727.289062 1143.8125 731.253906 1146.511719 735.289062 C 1149.207031 739.320312 1151.800781 743.417969 1154.296875 747.582031 C 1156.789062 751.742188 1159.179688 755.964844 1161.46875 760.242188 C 1163.753906 764.523438 1165.9375 768.855469 1168.011719 773.242188 C 1170.085938 777.625 1172.050781 782.0625 1173.90625 786.542969 C 1175.765625 791.027344 1177.507812 795.550781 1179.144531 800.121094 C 1180.777344 804.6875 1182.300781 809.292969 1183.707031 813.9375 C 1185.117188 818.582031 1186.410156 823.253906 1187.589844 827.960938 C 1188.769531 832.667969 1189.832031 837.402344 1190.777344 842.160156 C 1191.726562 846.917969 1192.554688 851.699219 1193.265625 856.5 C 1193.976562 861.296875 1194.570312 866.113281 1195.046875 870.941406 C 1195.523438 875.769531 1195.878906 880.605469 1196.117188 885.453125 C 1196.355469 890.300781 1196.476562 895.148438 1196.476562 900 C 1196.476562 904.851562 1196.355469 909.699219 1196.117188 914.546875 C 1195.878906 919.394531 1195.523438 924.230469 1195.046875 929.058594 C 1194.570312 933.886719 1193.976562 938.703125 1193.265625 943.5 C 1192.554688 948.300781 1191.726562 953.082031 1190.777344 957.839844 C 1189.832031 962.597656 1188.769531 967.332031 1187.589844 972.039062 C 1186.410156 976.746094 1185.117188 981.417969 1183.707031 986.0625 C 1182.300781 990.707031 1180.777344 995.3125 1179.144531 999.878906 C 1177.507812 1004.449219 1175.765625 1008.972656 1173.90625 1013.457031 C 1172.050781 1017.9375 1170.085938 1022.375 1168.011719 1026.757812 C 1165.9375 1031.144531 1163.753906 1035.476562 1161.46875 1039.757812 C 1159.179688 1044.035156 1156.789062 1048.257812 1154.292969 1052.417969 C 1151.800781 1056.582031 1149.207031 1060.679688 1146.511719 1064.710938 C 1143.8125 1068.746094 1141.019531 1072.710938 1138.128906 1076.609375 C 1135.242188 1080.507812 1132.257812 1084.332031 1129.179688 1088.082031 C 1126.101562 1091.832031 1122.933594 1095.503906 1119.671875 1099.101562 C 1116.414062 1102.695312 1113.070312 1106.207031 1109.640625 1109.640625 C 1106.207031 1113.070312 1102.695312 1116.414062 1099.101562 1119.671875 C 1095.503906 1122.933594 1091.832031 1126.101562 1088.082031 1129.179688 C 1084.332031 1132.257812 1080.507812 1135.242188 1076.609375 1138.128906 C 1072.710938 1141.019531 1068.746094 1143.8125 1064.710938 1146.511719 C 1060.679688 1149.207031 1056.582031 1151.800781 1052.417969 1154.292969 C 1048.257812 1156.789062 1044.035156 1159.179688 1039.757812 1161.46875 C 1035.476562 1163.753906 1031.144531 1165.933594 1026.757812 1168.011719 C 1022.375 1170.085938 1017.9375 1172.050781 1013.457031 1173.90625 C 1008.972656 1175.765625 1004.449219 1177.507812 999.878906 1179.144531 C 995.3125 1180.777344 990.707031 1182.300781 986.0625 1183.707031 C 981.417969 1185.117188 976.742188 1186.410156 972.039062 1187.589844 C 967.332031 1188.769531 962.597656 1189.832031 957.839844 1190.777344 C 953.082031 1191.726562 948.300781 1192.554688 943.5 1193.265625 C 938.703125 1193.976562 933.886719 1194.570312 929.058594 1195.046875 C 924.230469 1195.523438 919.394531 1195.878906 914.546875 1196.117188 C 909.699219 1196.355469 904.851562 1196.476562 900 1196.476562 Z M 900 1196.476562 " fill-opacity="1" fill-rule="nonzero"/></svg>