<svg xmlns="http://www.w3.org/2000/svg" xmlns:xlink="http://www.w3.org/1999/xlink" width="2400" zoomAndPan="magnify" viewBox="0 0 1800 1799.999925" height="2400" preserveAspectRatio="xMidYMid meet" version="1.0"><path fill="#757185" d="M 1800.003906 1526.3125 C 1800.003906 1677.367188 1677.542969 1799.824219 1526.476562 1799.824219 L 273.578125 1799.824219 C 122.515625 1799.824219 0.0703125 1677.367188 0.0703125 1526.3125 L 0.0703125 273.402344 C 0.0703125 122.339844 122.519531 -0.113281 273.578125 -0.113281 L 1526.480469 -0.113281 C 1677.546875 -0.113281 1800.007812 122.339844 1800.007812 273.402344 L 1800.007812 1526.3125 Z M 1800.003906 1526.3125 " fill-opacity="1" fill-rule="nonzero"/><path fill="#0e0c15" d="M 711.800781 642.058594 C 711.800781 644.257812 711.746094 646.457031 711.636719 648.65625 C 711.53125 650.851562 711.367188 653.046875 711.152344 655.238281 C 710.9375 657.425781 710.667969 659.609375 710.34375 661.785156 C 710.019531 663.964844 709.644531 666.128906 709.214844 668.289062 C 708.785156 670.445312 708.304688 672.59375 707.769531 674.726562 C 707.234375 676.863281 706.648438 678.984375 706.007812 681.089844 C 705.371094 683.195312 704.679688 685.285156 703.941406 687.355469 C 703.199219 689.425781 702.40625 691.480469 701.5625 693.511719 C 700.722656 695.546875 699.832031 697.558594 698.890625 699.546875 C 697.949219 701.535156 696.960938 703.5 695.921875 705.441406 C 694.886719 707.382812 693.800781 709.296875 692.667969 711.183594 C 691.539062 713.070312 690.359375 714.929688 689.140625 716.757812 C 687.917969 718.589844 686.648438 720.386719 685.339844 722.15625 C 684.027344 723.921875 682.675781 725.65625 681.277344 727.359375 C 679.882812 729.058594 678.445312 730.726562 676.96875 732.355469 C 675.488281 733.984375 673.972656 735.578125 672.417969 737.136719 C 670.859375 738.691406 669.269531 740.207031 667.636719 741.6875 C 666.007812 743.164062 664.339844 744.601562 662.640625 745.996094 C 660.9375 747.390625 659.203125 748.746094 657.4375 750.058594 C 655.667969 751.367188 653.871094 752.632812 652.042969 753.855469 C 650.210938 755.078125 648.351562 756.257812 646.464844 757.386719 C 644.578125 758.519531 642.664062 759.601562 640.722656 760.640625 C 638.78125 761.679688 636.816406 762.667969 634.828125 763.609375 C 632.839844 764.546875 630.828125 765.441406 628.792969 766.28125 C 626.761719 767.125 624.710938 767.917969 622.636719 768.65625 C 620.566406 769.398438 618.476562 770.089844 616.371094 770.726562 C 614.265625 771.367188 612.144531 771.953125 610.011719 772.488281 C 607.875 773.023438 605.730469 773.503906 603.570312 773.933594 C 601.414062 774.363281 599.246094 774.738281 597.066406 775.0625 C 594.890625 775.386719 592.707031 775.65625 590.519531 775.871094 C 588.328125 776.085938 586.132812 776.246094 583.9375 776.355469 C 581.738281 776.464844 579.539062 776.519531 577.339844 776.519531 C 575.136719 776.519531 572.9375 776.464844 570.742188 776.355469 C 568.542969 776.246094 566.347656 776.085938 564.160156 775.871094 C 561.96875 775.65625 559.785156 775.386719 557.609375 775.0625 C 555.433594 774.738281 553.265625 774.363281 551.105469 773.933594 C 548.949219 773.503906 546.800781 773.023438 544.667969 772.488281 C 542.53125 771.953125 540.414062 771.367188 538.308594 770.726562 C 536.199219 770.089844 534.113281 769.398438 532.039062 768.65625 C 529.96875 767.917969 527.914062 767.125 525.882812 766.28125 C 523.851562 765.441406 521.839844 764.546875 519.847656 763.609375 C 517.859375 762.667969 515.894531 761.679688 513.953125 760.640625 C 512.011719 759.601562 510.097656 758.519531 508.210938 757.386719 C 506.324219 756.257812 504.464844 755.078125 502.636719 753.855469 C 500.808594 752.632812 499.007812 751.367188 497.242188 750.054688 C 495.472656 748.746094 493.738281 747.390625 492.039062 745.996094 C 490.335938 744.601562 488.671875 743.164062 487.039062 741.6875 C 485.410156 740.207031 483.816406 738.691406 482.261719 737.136719 C 480.703125 735.578125 479.1875 733.984375 477.710938 732.355469 C 476.230469 730.726562 474.796875 729.058594 473.398438 727.359375 C 472.003906 725.65625 470.648438 723.921875 469.339844 722.15625 C 468.027344 720.386719 466.761719 718.589844 465.539062 716.757812 C 464.316406 714.929688 463.140625 713.070312 462.007812 711.183594 C 460.875 709.296875 459.792969 707.382812 458.753906 705.441406 C 457.71875 703.5 456.730469 701.535156 455.789062 699.546875 C 454.847656 697.558594 453.957031 695.546875 453.113281 693.511719 C 452.269531 691.480469 451.480469 689.425781 450.738281 687.355469 C 449.996094 685.285156 449.308594 683.195312 448.667969 681.089844 C 448.027344 678.984375 447.441406 676.863281 446.90625 674.726562 C 446.371094 672.59375 445.890625 670.445312 445.460938 668.289062 C 445.03125 666.128906 444.65625 663.964844 444.332031 661.785156 C 444.011719 659.609375 443.742188 657.425781 443.527344 655.238281 C 443.308594 653.046875 443.148438 650.851562 443.039062 648.65625 C 442.933594 646.457031 442.878906 644.257812 442.878906 642.058594 C 442.878906 639.855469 442.933594 637.65625 443.039062 635.460938 C 443.148438 633.261719 443.308594 631.066406 443.527344 628.878906 C 443.742188 626.6875 444.011719 624.503906 444.332031 622.328125 C 444.65625 620.152344 445.03125 617.984375 445.460938 615.824219 C 445.890625 613.667969 446.371094 611.519531 446.90625 609.386719 C 447.441406 607.25 448.027344 605.132812 448.667969 603.023438 C 449.308594 600.917969 449.996094 598.832031 450.738281 596.757812 C 451.480469 594.6875 452.269531 592.632812 453.113281 590.601562 C 453.957031 588.566406 454.847656 586.558594 455.789062 584.566406 C 456.730469 582.578125 457.71875 580.613281 458.753906 578.671875 C 459.792969 576.730469 460.875 574.816406 462.007812 572.929688 C 463.140625 571.042969 464.316406 569.183594 465.539062 567.355469 C 466.761719 565.523438 468.027344 563.726562 469.339844 561.957031 C 470.648438 560.191406 472.003906 558.457031 473.398438 556.757812 C 474.796875 555.054688 476.230469 553.390625 477.710938 551.757812 C 479.1875 550.128906 480.703125 548.535156 482.261719 546.980469 C 483.816406 545.421875 485.410156 543.90625 487.039062 542.429688 C 488.671875 540.949219 490.335938 539.511719 492.039062 538.117188 C 493.738281 536.722656 495.472656 535.367188 497.242188 534.058594 C 499.007812 532.746094 500.808594 531.480469 502.636719 530.257812 C 504.464844 529.035156 506.324219 527.855469 508.210938 526.726562 C 510.097656 525.59375 512.011719 524.511719 513.953125 523.472656 C 515.894531 522.4375 517.859375 521.445312 519.847656 520.503906 C 521.839844 519.566406 523.851562 518.671875 525.882812 517.832031 C 527.914062 516.988281 529.96875 516.199219 532.039062 515.457031 C 534.113281 514.714844 536.199219 514.023438 538.308594 513.386719 C 540.414062 512.746094 542.53125 512.160156 544.667969 511.625 C 546.800781 511.089844 548.949219 510.609375 551.105469 510.179688 C 553.265625 509.75 555.433594 509.375 557.609375 509.050781 C 559.785156 508.730469 561.96875 508.460938 564.160156 508.242188 C 566.347656 508.027344 568.542969 507.867188 570.742188 507.757812 C 572.9375 507.648438 575.136719 507.597656 577.339844 507.597656 C 579.539062 507.597656 581.738281 507.648438 583.9375 507.757812 C 586.132812 507.867188 588.328125 508.027344 590.519531 508.242188 C 592.707031 508.460938 594.890625 508.730469 597.066406 509.050781 C 599.246094 509.375 601.414062 509.75 603.570312 510.179688 C 605.730469 510.609375 607.875 511.089844 610.011719 511.625 C 612.144531 512.160156 614.265625 512.746094 616.371094 513.386719 C 618.476562 514.023438 620.566406 514.714844 622.636719 515.457031 C 624.710938 516.199219 626.761719 516.988281 628.792969 517.832031 C 630.828125 518.671875 632.839844 519.566406 634.828125 520.503906 C 636.816406 521.445312 638.78125 522.4375 640.722656 523.472656 C 642.664062 524.511719 644.578125 525.59375 646.464844 526.726562 C 648.351562 527.855469 650.210938 529.035156 652.042969 530.257812 C 653.871094 531.480469 655.667969 532.746094 657.4375 534.058594 C 659.203125 535.367188 660.9375 536.722656 662.640625 538.117188 C 664.339844 539.511719 666.007812 540.949219 667.636719 542.429688 C 669.269531 543.90625 670.859375 545.421875 672.417969 546.980469 C 673.972656 548.535156 675.488281 550.128906 676.96875 551.757812 C 678.445312 553.390625 679.882812 555.054688 681.277344 556.757812 C 682.675781 558.457031 684.027344 560.191406 685.339844 561.957031 C 686.648438 563.726562 687.917969 565.523438 689.140625 567.355469 C 690.359375 569.183594 691.539062 571.042969 692.667969 572.929688 C 693.800781 574.816406 694.886719 576.730469 695.921875 578.671875 C 696.960938 580.613281 697.949219 582.578125 698.890625 584.566406 C 699.832031 586.558594 700.722656 588.566406 701.5625 590.601562 C 702.40625 592.632812 703.199219 594.6875 703.941406 596.757812 C 704.679688 598.832031 705.371094 600.917969 706.007812 603.023438 C 706.648438 605.132812 707.234375 607.25 707.769531 609.386719 C 708.304688 611.519531 708.785156 613.667969 709.214844 615.824219 C 709.644531 617.984375 710.019531 620.152344 710.34375 622.328125 C 710.667969 624.503906 710.9375 626.6875 711.152344 628.878906 C 711.367188 631.066406 711.53125 633.261719 711.636719 635.460938 C 711.746094 637.65625 711.800781 639.855469 711.800781 642.058594 Z M 711.800781 642.058594 " fill-opacity="1" fill-rule="nonzero"/><path fill="#0e0c15" d="M 461.425781 875.648438 L 692.421875 875.648438 L 692.421875 1618.769531 L 461.425781 1618.769531 Z M 461.425781 875.648438 " fill-opacity="1" fill-rule="nonzero"/><path fill="#0e0c15" d="M 837.707031 875.648438 L 1057.574219 875.648438 L 1057.574219 1618.769531 L 837.707031 1618.769531 Z M 837.707031 875.648438 " fill-opacity="1" fill-rule="nonzero"/><path fill="#0e0c15" d="M 847.210938 1271.304688 L 1067.070312 1271.304688 L 1067.070312 1618.769531 L 847.210938 1618.769531 Z M 847.210938 1271.304688 " fill-opacity="1" fill-rule="nonzero"/><path fill="#0e0c15" d="M 1067.070312 1271.304688 C 1067.070312 1271.304688 1063.632812 1174.921875 1089.050781 1124.804688 C 1089.050781 1124.804688 1114.476562 1063.089844 1194.378906 1062.71875 C 1194.378906 1062.71875 1288.085938 1046.359375 1314.960938 1139.339844 C 1314.960938 1139.339844 1325.132812 1190.90625 1325.132812 1212.710938 C 1325.132812 1234.511719 1325.859375 1618.773438 1325.859375 1618.773438 L 1556.125 1618.773438 L 1556.125 1193.097656 C 1556.125 1193.097656 1572.839844 952.648438 1428.519531 886.78125 C 1428.519531 886.78125 1191.222656 780.246094 1062.425781 975.898438 C 1062.425781 975.898438 1034.332031 995.257812 1030.453125 941.019531 C 1026.574219 886.78125 993.648438 1024.320312 992.675781 1027.230469 C 991.707031 1030.136719 1030.453125 1301.328125 1030.453125 1301.328125 Z M 1067.070312 1271.304688 " fill-opacity="1" fill-rule="nonzero"/></svg>