<svg xmlns="http://www.w3.org/2000/svg" xmlns:xlink="http://www.w3.org/1999/xlink" width="2400" zoomAndPan="magnify" viewBox="0 0 1800 1799.999925" height="2400" preserveAspectRatio="xMidYMid meet" version="1.0"><path fill="#757185" d="M 900 22.273438 C 402.75 22.273438 0 425.25 0 922.273438 C 0 1320 257.851562 1657.273438 615.375 1776.148438 C 660.375 1784.625 676.875 1756.800781 676.875 1732.875 C 676.875 1711.5 676.125 1654.875 675.75 1579.875 C 425.398438 1634.175781 372.601562 1459.125 372.601562 1459.125 C 331.648438 1355.25 272.476562 1327.5 272.476562 1327.5 C 190.949219 1271.699219 278.773438 1272.824219 278.773438 1272.824219 C 369.148438 1279.125 416.625 1365.523438 416.625 1365.523438 C 496.875 1503.148438 627.300781 1463.398438 678.75 1440.375 C 686.851562 1382.175781 710.023438 1342.5 735.75 1320 C 535.875 1297.5 325.800781 1220.101562 325.800781 875.25 C 325.800781 777 360.675781 696.75 418.425781 633.75 C 408.300781 611.023438 377.925781 519.523438 426.300781 395.550781 C 426.300781 395.550781 501.675781 371.398438 673.800781 487.800781 C 745.800781 467.773438 822.300781 457.875 898.800781 457.425781 C 975.300781 457.875 1051.800781 467.773438 1123.800781 487.800781 C 1294.800781 371.398438 1370.175781 395.550781 1370.175781 395.550781 C 1418.550781 519.523438 1388.175781 611.023438 1379.175781 633.75 C 1436.550781 696.75 1471.425781 777 1471.425781 875.25 C 1471.425781 1221 1261.050781 1297.125 1060.800781 1319.25 C 1092.300781 1346.25 1121.550781 1401.449219 1121.550781 1485.75 C 1121.550781 1606.199219 1120.425781 1702.949219 1120.425781 1732.199219 C 1120.425781 1755.824219 1136.175781 1783.949219 1182.300781 1774.949219 C 1542.375 1656.898438 1800 1319.398438 1800 922.273438 C 1800 425.25 1397.023438 22.273438 900 22.273438 " fill-opacity="1" fill-rule="nonzero"/></svg>