<svg xmlns="http://www.w3.org/2000/svg" xmlns:xlink="http://www.w3.org/1999/xlink" width="2480" zoomAndPan="magnify" viewBox="0 0 1860 1859.999923" height="2480" preserveAspectRatio="xMidYMid meet" version="1.0"><defs><clipPath id="d9ede35a85"><path d="M 450 0 L 1410 0 C 1658.527344 0 1860 201.472656 1860 450 L 1860 1410 C 1860 1658.527344 1658.527344 1860 1410 1860 L 450 1860 C 201.472656 1860 0 1658.527344 0 1410 L 0 450 C 0 201.472656 201.472656 0 450 0 Z M 450 0 " clip-rule="nonzero"/></clipPath><clipPath id="2e87f86121"><path d="M 429.027344 441 L 1431.027344 441 L 1431.027344 1419 L 429.027344 1419 Z M 429.027344 441 " clip-rule="nonzero"/></clipPath></defs><g clip-path="url(#d9ede35a85)"><rect x="-186" width="2232" fill="#ffae43" y="-185.999992" height="2231.999908" fill-opacity="1"/></g><g clip-path="url(#2e87f86121)"><path fill="#000000" d="M 930.027344 441.425781 C 653.222656 441.425781 429.027344 665.75 429.027344 942.425781 C 429.027344 1163.824219 572.5625 1351.574219 771.585938 1417.75 C 796.632812 1422.464844 805.820312 1406.976562 805.820312 1393.660156 C 805.820312 1381.761719 805.402344 1350.238281 805.191406 1308.488281 C 665.832031 1338.714844 636.441406 1241.273438 636.441406 1241.273438 C 613.644531 1183.449219 580.703125 1168 580.703125 1168 C 535.320312 1136.9375 584.210938 1137.566406 584.210938 1137.566406 C 634.519531 1141.070312 660.945312 1189.167969 660.945312 1189.167969 C 705.621094 1265.777344 778.222656 1243.652344 806.863281 1230.835938 C 811.371094 1198.4375 824.273438 1176.351562 838.59375 1163.824219 C 727.328125 1151.300781 610.386719 1108.214844 610.386719 916.246094 C 610.386719 861.554688 629.800781 816.882812 661.949219 781.8125 C 656.3125 769.164062 639.402344 718.226562 666.332031 649.214844 C 666.332031 649.214844 708.292969 635.773438 804.109375 700.566406 C 844.1875 689.421875 886.773438 683.910156 929.359375 683.660156 C 971.941406 683.910156 1014.527344 689.421875 1054.609375 700.566406 C 1149.796875 635.773438 1191.757812 649.214844 1191.757812 649.214844 C 1218.683594 718.226562 1201.777344 769.164062 1196.765625 781.8125 C 1228.703125 816.882812 1248.117188 861.554688 1248.117188 916.246094 C 1248.117188 1108.714844 1131.011719 1151.089844 1019.539062 1163.40625 C 1037.074219 1178.4375 1053.355469 1209.164062 1053.355469 1256.09375 C 1053.355469 1323.144531 1052.730469 1377 1052.730469 1393.285156 C 1052.730469 1406.433594 1061.496094 1422.089844 1087.171875 1417.082031 C 1287.613281 1351.367188 1431.027344 1163.492188 1431.027344 942.425781 C 1431.027344 665.75 1206.703125 441.425781 930.027344 441.425781 " fill-opacity="1" fill-rule="nonzero"/></g></svg>