<svg xmlns="http://www.w3.org/2000/svg" xmlns:xlink="http://www.w3.org/1999/xlink" width="2480" zoomAndPan="magnify" viewBox="0 0 1860 1859.999923" height="2480" preserveAspectRatio="xMidYMid meet" version="1.0"><defs><clipPath id="de64b5fa2c"><path d="M 450 0 L 1410 0 C 1658.527344 0 1860 201.472656 1860 450 L 1860 1410 C 1860 1658.527344 1658.527344 1860 1410 1860 L 450 1860 C 201.472656 1860 0 1658.527344 0 1410 L 0 450 C 0 201.472656 201.472656 0 450 0 Z M 450 0 " clip-rule="nonzero"/></clipPath><clipPath id="00ce1a24f6"><path d="M 510 452.714844 L 1351 452.714844 L 1351 1407.464844 L 510 1407.464844 Z M 510 452.714844 " clip-rule="nonzero"/></clipPath></defs><g clip-path="url(#de64b5fa2c)"><rect x="-186" width="2232" fill="#8c52ff" y="-185.999992" height="2231.999908" fill-opacity="1"/></g><g clip-path="url(#00ce1a24f6)"><path fill="#000000" d="M 510 452.714844 L 510 754.058594 L 771.003906 904.828125 L 771.003906 603.367188 Z M 1350.179688 620.871094 L 1089.175781 771.679688 L 1089.175781 1072.984375 L 1350.140625 922.332031 Z M 799.605469 620.988281 L 799.605469 922.332031 L 1060.613281 1072.984375 L 1060.613281 771.679688 Z M 799.605469 955.351562 L 799.605469 1256.695312 L 1060.574219 1407.464844 L 1060.574219 1106.003906 Z M 799.605469 955.351562 " fill-opacity="1" fill-rule="nonzero"/></g></svg>